<svg width="478" height="478" viewBox="0 0 478 478" fill="none" xmlns="http://www.w3.org/2000/svg">
<rect width="478" height="478" rx="75" fill="#F6E6D3"/>
<path d="M239 95.6C239 95.6 207 143.6 207 191.6C207 239.6 239 255.6 239 303.6C239 351.6 207 383.6 207 383.6" stroke="#5D8C51" stroke-width="6.4" stroke-linecap="round"/>
<path d="M239 95.6C239 95.6 271 143.6 271 191.6C271 239.6 239 255.6 239 303.6C239 351.6 271 383.6 271 383.6" stroke="#5D8C51" stroke-width="6.4" stroke-linecap="round"/>
<circle cx="239" cy="127.6" r="16" fill="#F1C232"/>
<circle cx="239" cy="223.6" r="16" fill="#F1C232"/>
<circle cx="239" cy="319.6" r="16" fill="#F1C232"/>
<path d="M127.5 319.6C143.5 303.6 159.5 271.6 143.5 239.6C127.5 207.6 95.5 191.6 63.5 223.6C47.5 239.6 47.5 271.6 63.5 287.6C79.5 303.6 111.5 335.6 127.5 319.6Z" fill="#B45F06"/>
<path d="M79.5 239.6C79.5 239.6 95.5 223.6 111.5 239.6C127.5 255.6 111.5 271.6 111.5 271.6C111.5 271.6 95.5 255.6 79.5 239.6Z" fill="#5D8C51"/>
<circle cx="95.5" cy="255.6" r="6.4" fill="#F1C232"/>
<path d="M350.5 319.6C334.5 303.6 318.5 271.6 334.5 239.6C350.5 207.6 382.5 191.6 414.5 223.6C430.5 239.6 430.5 271.6 414.5 287.6C398.5 303.6 366.5 335.6 350.5 319.6Z" fill="#6AA84F"/>
<path d="M398.5 239.6C398.5 239.6 382.5 223.6 366.5 239.6C350.5 255.6 366.5 271.6 366.5 271.6C366.5 271.6 382.5 255.6 398.5 239.6Z" fill="#B45F06"/>
<circle cx="382.5" cy="255.6" r="6.4" fill="#F1C232"/>
</svg>
