<svg width="115" height="43" viewBox="0 0 115 43" fill="none" xmlns="http://www.w3.org/2000/svg">
<path fill-rule="evenodd" clip-rule="evenodd" d="M108.836 28.4925C111.532 26.1779 112.798 23.8282 112.798 21.5536C112.798 19.2789 111.532 16.9292 108.836 14.6146C106.144 12.3041 102.167 10.1596 97.1296 8.3307C87.0665 4.6771 73.0712 2.38982 57.5444 2.38982C42.0176 2.38982 28.0223 4.6771 17.9593 8.3307C12.9219 10.1596 8.94454 12.3041 6.25289 14.6146C3.55652 16.9292 2.29119 19.2789 2.29119 21.5536C2.29119 23.8282 3.55652 26.1779 6.25289 28.4925C8.94454 30.803 12.9219 32.9475 17.9593 34.7764C28.0223 38.43 42.0176 40.7173 57.5444 40.7173C73.0712 40.7173 87.0665 38.43 97.1296 34.7764C102.167 32.9475 106.144 30.803 108.836 28.4925ZM57.5444 42.1257C88.8378 42.1257 114.206 32.9152 114.206 21.5536C114.206 10.1919 88.8378 0.981445 57.5444 0.981445C26.2511 0.981445 0.882812 10.1919 0.882812 21.5536C0.882812 32.9152 26.2511 42.1257 57.5444 42.1257Z" fill="#262626"/>
<path d="M96.4717 25.4266V18.7002H94.038V17.427H100.359V18.7002H97.9364V25.4266H96.4717Z" fill="#262626"/>
<path d="M90.3426 25.6068C89.614 25.6068 88.9718 25.4416 88.4159 25.1111C87.8601 24.7731 87.4244 24.2961 87.109 23.6802C86.7935 23.0567 86.6357 22.3093 86.6357 21.438C86.6357 20.5817 86.7897 19.8419 87.0977 19.2184C87.4057 18.5875 87.8376 18.103 88.3934 17.765C88.9492 17.4195 89.6027 17.2467 90.3539 17.2467C91.3754 17.2467 92.1679 17.5021 92.7312 18.0129C93.2946 18.5161 93.6626 19.2222 93.8354 20.1311L92.3031 20.2099C92.2054 19.6841 91.9951 19.271 91.6721 18.9706C91.3491 18.6701 90.9097 18.5199 90.3539 18.5199C89.9032 18.5199 89.5126 18.6401 89.1821 18.8804C88.8516 19.1208 88.5962 19.4588 88.4159 19.8944C88.2357 20.3301 88.1455 20.8446 88.1455 21.438C88.1455 22.0389 88.2357 22.5572 88.4159 22.9929C88.6037 23.421 88.8629 23.7515 89.1934 23.9844C89.5238 24.2172 89.9069 24.3337 90.3426 24.3337C90.936 24.3337 91.3942 24.1722 91.7172 23.8492C92.0477 23.5187 92.258 23.068 92.3481 22.4971L93.8804 22.576C93.7753 23.1994 93.5725 23.7403 93.272 24.1985C92.9716 24.6491 92.5735 24.9984 92.0777 25.2463C91.5895 25.4866 91.0111 25.6068 90.3426 25.6068Z" fill="#262626"/>
<path d="M80.3461 25.4266V17.427H85.7318V18.7002H81.8108V20.7846H85.5966V22.0465H81.8108V24.1534H85.8219V25.4266H80.3461Z" fill="#262626"/>
<path d="M72.3192 25.4266V17.427H74.0318L77.4795 23.4436V17.427H78.9442V25.4266H77.1866L73.7839 19.579V25.4266H72.3192Z" fill="#262626"/>
<path d="M64.2923 25.4266V17.427H66.0049L69.4526 23.4436V17.427H70.9174V25.4266H69.1597L65.7571 19.579V25.4266H64.2923Z" fill="#262626"/>
<path d="M59.4918 25.6068C58.7031 25.6068 58.0233 25.4416 57.4525 25.1111C56.8816 24.7731 56.4422 24.2923 56.1342 23.6689C55.8338 23.0455 55.6836 22.3018 55.6836 21.438C55.6836 20.5742 55.8338 19.8306 56.1342 19.2072C56.4422 18.5762 56.8816 18.0917 57.4525 17.7537C58.0233 17.4157 58.7031 17.2467 59.4918 17.2467C60.2955 17.2467 60.9791 17.4157 61.5424 17.7537C62.1133 18.0917 62.5489 18.5762 62.8494 19.2072C63.1574 19.8306 63.3113 20.5742 63.3113 21.438C63.3113 22.3018 63.1574 23.0455 62.8494 23.6689C62.5489 24.2923 62.1133 24.7731 61.5424 25.1111C60.9791 25.4416 60.2955 25.6068 59.4918 25.6068ZM59.4918 24.3337C59.9801 24.3337 60.3932 24.221 60.7312 23.9956C61.0767 23.7628 61.3396 23.4323 61.5199 23.0041C61.7077 22.5685 61.8016 22.0464 61.8016 21.438C61.8016 20.8296 61.7077 20.3076 61.5199 19.8719C61.3396 19.4363 61.0767 19.102 60.7312 18.8691C60.3932 18.6363 59.9801 18.5199 59.4918 18.5199C59.0186 18.5199 58.6092 18.6363 58.2637 18.8691C57.9182 19.102 57.6515 19.4363 57.4637 19.8719C57.2835 20.3076 57.1933 20.8296 57.1933 21.438C57.1933 22.0464 57.2835 22.5685 57.4637 23.0041C57.6515 23.4323 57.9182 23.7628 58.2637 23.9956C58.6092 24.221 59.0186 24.3337 59.4918 24.3337Z" fill="#262626"/>
<path d="M51.4626 25.6068C50.734 25.6068 50.0917 25.4416 49.5359 25.1111C48.9801 24.7731 48.5444 24.2961 48.2289 23.6802C47.9134 23.0567 47.7557 22.3093 47.7557 21.438C47.7557 20.5817 47.9097 19.8419 48.2177 19.2184C48.5256 18.5875 48.9575 18.103 49.5134 17.765C50.0692 17.4195 50.7227 17.2467 51.4738 17.2467C52.4954 17.2467 53.2878 17.5021 53.8512 18.0129C54.4145 18.5161 54.7826 19.2222 54.9553 20.1311L53.423 20.2099C53.3254 19.6841 53.1151 19.271 52.7921 18.9706C52.4691 18.6701 52.0297 18.5199 51.4738 18.5199C51.0232 18.5199 50.6326 18.6401 50.3021 18.8804C49.9716 19.1208 49.7162 19.4588 49.5359 19.8944C49.3556 20.3301 49.2655 20.8446 49.2655 21.438C49.2655 22.0389 49.3556 22.5572 49.5359 22.9929C49.7237 23.421 49.9828 23.7515 50.3133 23.9844C50.6438 24.2172 51.0269 24.3337 51.4626 24.3337C52.056 24.3337 52.5142 24.1722 52.8371 23.8492C53.1676 23.5187 53.378 23.068 53.4681 22.4971L55.0004 22.576C54.8953 23.1994 54.6924 23.7403 54.392 24.1985C54.0915 24.6491 53.6934 24.9984 53.1977 25.2463C52.7094 25.4866 52.1311 25.6068 51.4626 25.6068Z" fill="#262626"/>
<path d="M37.2851 25.4266L40.1695 17.427H41.9609L44.8453 25.4266H43.313L42.6482 23.5337H39.4822L38.8174 25.4266H37.2851ZM39.9103 22.2831H42.2201L41.0708 18.903L39.9103 22.2831Z" fill="#262626"/>
<path d="M34.3635 25.4266V18.7002H31.9298V17.427H38.2507V18.7002H35.8282V25.4266H34.3635Z" fill="#262626"/>
<path d="M25.3465 25.4266L28.2308 17.427H30.0223L32.9066 25.4266H31.3743L30.7096 23.5337H27.5435L26.8788 25.4266H25.3465ZM27.9717 22.2831H30.2814L29.1322 18.903L27.9717 22.2831Z" fill="#262626"/>
<path d="M16.2024 25.4266V17.427H18.1741L20.3824 23.6239L22.5908 17.427H24.5625V25.4266H23.0978V19.9057L21.081 25.4153H19.6839L17.6671 19.9057V25.4266H16.2024Z" fill="#262626"/>
</svg>
